<svg xmlns="http://www.w3.org/2000/svg" xmlns:xlink="http://www.w3.org/1999/xlink" width="200" zoomAndPan="magnify" viewBox="0 0 150 60" height="80" preserveAspectRatio="xMidYMid meet" version="1.0"><defs><g/></defs><g fill="#ffffff" fill-opacity="1"><g transform="translate(3.268015, 49.881856)"><g><path d="M 23.097656 -46.191406 C 16.6875 -46.191406 11.257812 -43.882812 6.8125 -39.378906 C 2.308594 -34.875 0 -29.449219 0 -23.097656 C 0 -16.6875 2.308594 -11.316406 6.8125 -6.8125 C 11.316406 -2.308594 16.6875 0 23.097656 0 C 29.503906 0 34.875 -2.308594 39.378906 -6.8125 C 43.941406 -11.257812 46.25 -16.6875 46.25 -23.097656 C 46.25 -29.449219 43.941406 -34.875 39.378906 -39.378906 C 34.875 -43.882812 29.503906 -46.191406 23.097656 -46.191406 Z M 23.097656 -38.457031 C 27.3125 -38.457031 30.949219 -36.953125 33.953125 -33.953125 C 36.953125 -30.949219 38.457031 -27.3125 38.457031 -23.097656 C 38.457031 -18.882812 37.011719 -15.242188 33.953125 -12.183594 C 30.949219 -9.179688 27.3125 -7.738281 23.097656 -7.738281 C 18.882812 -7.738281 15.1875 -9.179688 12.183594 -12.183594 C 9.179688 -15.1875 7.738281 -18.882812 7.738281 -23.097656 C 7.738281 -27.3125 9.179688 -30.949219 12.183594 -33.953125 C 15.242188 -37.011719 18.882812 -38.457031 23.097656 -38.457031 Z M 23.097656 -38.457031 "/></g></g></g><g fill="#ffffff" fill-opacity="1"><g transform="translate(58.985571, 49.881856)"><g><path d="M 38.457031 -32.738281 C 38.457031 -34.585938 38.109375 -36.320312 37.417969 -37.9375 C 36.722656 -39.609375 35.742188 -40.996094 34.527344 -42.207031 C 33.316406 -43.480469 31.875 -44.402344 30.199219 -45.152344 C 28.523438 -45.847656 26.792969 -46.191406 25 -46.191406 L 0 -46.191406 L 7.679688 -38.457031 L 25 -38.457031 C 25.753906 -38.457031 26.503906 -38.339844 27.195312 -38.050781 C 27.945312 -37.761719 28.582031 -37.359375 29.101562 -36.78125 C 29.621094 -36.261719 30.027344 -35.625 30.3125 -34.933594 C 30.601562 -34.242188 30.777344 -33.488281 30.777344 -32.738281 C 30.777344 -31.929688 30.601562 -31.179688 30.3125 -30.488281 C 30.027344 -29.792969 29.621094 -29.160156 29.101562 -28.640625 C 28.582031 -28.0625 27.945312 -27.65625 27.195312 -27.371094 C 26.503906 -27.023438 25.753906 -26.90625 25 -26.90625 L 0 -26.90625 L 0 -19.226562 L 25 -19.226562 C 25.808594 -19.226562 26.5625 -19.054688 27.3125 -18.765625 C 28.003906 -18.476562 28.582031 -18.015625 29.101562 -17.496094 C 29.621094 -16.976562 30.027344 -16.339844 30.3125 -15.648438 C 30.601562 -14.953125 30.777344 -14.203125 30.777344 -13.453125 C 30.777344 -12.703125 30.601562 -11.953125 30.3125 -11.257812 C 30.027344 -10.566406 29.621094 -9.929688 29.101562 -9.410156 C 28.582031 -8.835938 27.945312 -8.429688 27.195312 -8.140625 C 26.503906 -7.851562 25.753906 -7.738281 25 -7.738281 L 7.679688 -7.738281 L 7.679688 0 L 25 0 C 26.851562 0 28.582031 -0.347656 30.199219 -1.039062 C 31.875 -1.789062 33.316406 -2.714844 34.527344 -3.984375 C 35.742188 -5.195312 36.722656 -6.582031 37.417969 -8.257812 C 38.109375 -9.875 38.457031 -11.605469 38.457031 -13.453125 C 38.457031 -17.265625 37.128906 -20.5 34.414062 -23.097656 C 37.128906 -25.753906 38.457031 -28.984375 38.457031 -32.738281 Z M 38.457031 -32.738281 "/></g></g></g><g fill="#ffffff" fill-opacity="1"><g transform="translate(105.695943, 49.881856)"><g><path d="M 24.945312 -19.226562 C 26.5625 -19.226562 27.890625 -18.652344 29.042969 -17.496094 C 30.140625 -16.339844 30.777344 -15.011719 30.777344 -13.453125 C 30.777344 -12.644531 30.601562 -11.894531 30.3125 -11.203125 C 30.027344 -10.449219 29.621094 -9.875 29.101562 -9.355469 C 28.582031 -8.835938 27.945312 -8.429688 27.195312 -8.140625 C 26.503906 -7.851562 25.753906 -7.738281 24.945312 -7.738281 L 24.945312 0 C 28.699219 0 31.875 -1.328125 34.472656 -3.925781 C 37.128906 -6.582031 38.457031 -9.757812 38.457031 -13.453125 C 38.457031 -17.148438 37.128906 -20.324219 34.472656 -22.980469 C 31.875 -25.578125 28.699219 -26.90625 24.945312 -26.90625 L 13.453125 -26.90625 C 11.777344 -26.90625 10.449219 -27.484375 9.296875 -28.640625 C 8.199219 -29.792969 7.679688 -31.121094 7.679688 -32.738281 C 7.679688 -33.488281 7.796875 -34.242188 8.082031 -34.933594 C 8.371094 -35.625 8.777344 -36.261719 9.296875 -36.78125 C 9.875 -37.359375 10.449219 -37.761719 11.203125 -38.050781 C 11.894531 -38.339844 12.644531 -38.457031 13.453125 -38.457031 L 13.453125 -46.191406 C 9.699219 -46.191406 6.523438 -44.863281 3.925781 -42.207031 C 1.328125 -39.550781 0 -36.433594 0 -32.738281 C 0 -28.984375 1.328125 -25.808594 3.925781 -23.152344 C 6.523438 -20.554688 9.699219 -19.226562 13.453125 -19.226562 Z M 24.945312 -19.226562 "/></g></g></g></svg>