<svg xmlns="http://www.w3.org/2000/svg" xmlns:xlink="http://www.w3.org/1999/xlink" width="500" zoomAndPan="magnify" viewBox="0 0 375 374.999991" height="500" preserveAspectRatio="xMidYMid meet" version="1.0"><defs><g/></defs><g fill="#ffffff" fill-opacity="1"><g transform="translate(59.847658, 217.306481)"><g><path d="M 39.628906 -79.261719 C 28.632812 -79.261719 19.320312 -75.296875 11.691406 -67.570312 C 3.964844 -59.839844 0 -50.527344 0 -39.628906 C 0 -28.632812 3.964844 -19.417969 11.691406 -11.691406 C 19.417969 -3.964844 28.632812 0 39.628906 0 C 50.628906 0 59.839844 -3.964844 67.570312 -11.691406 C 75.394531 -19.320312 79.359375 -28.632812 79.359375 -39.628906 C 79.359375 -50.527344 75.394531 -59.839844 67.570312 -67.570312 C 59.839844 -75.296875 50.628906 -79.261719 39.628906 -79.261719 Z M 39.628906 -65.984375 C 46.863281 -65.984375 53.105469 -63.40625 58.257812 -58.257812 C 63.40625 -53.105469 65.984375 -46.863281 65.984375 -39.628906 C 65.984375 -32.398438 63.507812 -26.15625 58.257812 -20.90625 C 53.105469 -15.753906 46.863281 -13.277344 39.628906 -13.277344 C 32.398438 -13.277344 26.058594 -15.753906 20.90625 -20.90625 C 15.753906 -26.058594 13.277344 -32.398438 13.277344 -39.628906 C 13.277344 -46.863281 15.753906 -53.105469 20.90625 -58.257812 C 26.15625 -63.507812 32.398438 -65.984375 39.628906 -65.984375 Z M 39.628906 -65.984375 "/></g></g></g><g fill="#ffffff" fill-opacity="1"><g transform="translate(155.450439, 217.306481)"><g><path d="M 65.984375 -56.175781 C 65.984375 -59.347656 65.390625 -62.316406 64.199219 -65.09375 C 63.011719 -67.964844 61.328125 -70.34375 59.246094 -72.421875 C 57.167969 -74.601562 54.6875 -76.1875 51.816406 -77.476562 C 48.941406 -78.664062 45.972656 -79.261719 42.898438 -79.261719 L 0 -79.261719 L 13.175781 -65.984375 L 42.898438 -65.984375 C 44.1875 -65.984375 45.476562 -65.785156 46.664062 -65.289062 C 47.953125 -64.796875 49.042969 -64.101562 49.933594 -63.109375 C 50.824219 -62.21875 51.519531 -61.128906 52.015625 -59.941406 C 52.507812 -58.75 52.808594 -57.464844 52.808594 -56.175781 C 52.808594 -54.789062 52.507812 -53.5 52.015625 -52.3125 C 51.519531 -51.121094 50.824219 -50.03125 49.933594 -49.140625 C 49.042969 -48.152344 47.953125 -47.457031 46.664062 -46.960938 C 45.476562 -46.367188 44.1875 -46.167969 42.898438 -46.167969 L 0 -46.167969 L 0 -32.992188 L 42.898438 -32.992188 C 44.285156 -32.992188 45.574219 -32.695312 46.863281 -32.199219 C 48.050781 -31.703125 49.042969 -30.910156 49.933594 -30.019531 C 50.824219 -29.128906 51.519531 -28.039062 52.015625 -26.847656 C 52.507812 -25.660156 52.808594 -24.371094 52.808594 -23.085938 C 52.808594 -21.796875 52.507812 -20.507812 52.015625 -19.320312 C 51.519531 -18.128906 50.824219 -17.039062 49.933594 -16.148438 C 49.042969 -15.160156 47.953125 -14.464844 46.664062 -13.96875 C 45.476562 -13.472656 44.1875 -13.277344 42.898438 -13.277344 L 13.175781 -13.277344 L 13.175781 0 L 42.898438 0 C 46.070312 0 49.042969 -0.59375 51.816406 -1.785156 C 54.6875 -3.070312 57.167969 -4.65625 59.246094 -6.835938 C 61.328125 -8.917969 63.011719 -11.292969 64.199219 -14.167969 C 65.390625 -16.941406 65.984375 -19.914062 65.984375 -23.085938 C 65.984375 -29.625 63.707031 -35.171875 59.046875 -39.628906 C 63.707031 -44.1875 65.984375 -49.734375 65.984375 -56.175781 Z M 65.984375 -56.175781 "/></g></g></g><g fill="#ffffff" fill-opacity="1"><g transform="translate(235.598272, 217.306481)"><g><path d="M 42.800781 -32.992188 C 45.574219 -32.992188 47.851562 -32 49.835938 -30.019531 C 51.71875 -28.039062 52.808594 -25.757812 52.808594 -23.085938 C 52.808594 -21.699219 52.507812 -20.410156 52.015625 -19.21875 C 51.519531 -17.933594 50.824219 -16.941406 49.933594 -16.050781 C 49.042969 -15.160156 47.953125 -14.464844 46.664062 -13.96875 C 45.476562 -13.472656 44.1875 -13.277344 42.800781 -13.277344 L 42.800781 0 C 49.242188 0 54.6875 -2.277344 59.148438 -6.738281 C 63.707031 -11.292969 65.984375 -16.742188 65.984375 -23.085938 C 65.984375 -29.425781 63.707031 -34.875 59.148438 -39.433594 C 54.6875 -43.890625 49.242188 -46.167969 42.800781 -46.167969 L 23.085938 -46.167969 C 20.210938 -46.167969 17.933594 -47.160156 15.949219 -49.140625 C 14.070312 -51.121094 13.175781 -53.402344 13.175781 -56.175781 C 13.175781 -57.464844 13.375 -58.75 13.871094 -59.941406 C 14.367188 -61.128906 15.058594 -62.21875 15.949219 -63.109375 C 16.941406 -64.101562 17.933594 -64.796875 19.21875 -65.289062 C 20.410156 -65.785156 21.699219 -65.984375 23.085938 -65.984375 L 23.085938 -79.261719 C 16.644531 -79.261719 11.195312 -76.980469 6.738281 -72.421875 C 2.277344 -67.867188 0 -62.515625 0 -56.175781 C 0 -49.734375 2.277344 -44.285156 6.738281 -39.730469 C 11.195312 -35.269531 16.644531 -32.992188 23.085938 -32.992188 Z M 42.800781 -32.992188 "/></g></g></g></svg>