<svg xmlns="http://www.w3.org/2000/svg" xmlns:xlink="http://www.w3.org/1999/xlink" width="200" zoomAndPan="magnify" viewBox="0 0 150 60" height="80" preserveAspectRatio="xMidYMid meet" version="1.0"><defs><g/></defs><g fill="#e42a2a" fill-opacity="1"><g transform="translate(8.696685, 23.000228)"><g><path d="M 13.59375 0 L 2.546875 0 L 2.546875 -14.375 L 8.140625 -14.375 C 9.335938 -14.375 10.316406 -14.160156 11.078125 -13.734375 C 11.816406 -13.316406 12.390625 -12.75 12.796875 -12.03125 C 13.210938 -11.320312 13.421875 -10.535156 13.421875 -9.671875 C 13.421875 -8.597656 13.085938 -7.632812 12.421875 -6.78125 C 11.765625 -5.9375 10.9375 -5.378906 9.9375 -5.109375 Z M 3.84375 -13.609375 L 9.453125 -5.765625 C 10.378906 -5.953125 11.144531 -6.410156 11.75 -7.140625 C 12.351562 -7.867188 12.65625 -8.710938 12.65625 -9.671875 C 12.65625 -10.421875 12.46875 -11.101562 12.09375 -11.71875 C 11.726562 -12.34375 11.207031 -12.820312 10.53125 -13.15625 C 9.925781 -13.457031 9.132812 -13.609375 8.15625 -13.609375 Z M 3.3125 -13.109375 L 3.3125 -5.703125 L 8.609375 -5.703125 Z M 3.3125 -0.765625 L 12.140625 -0.765625 L 9.125 -4.953125 L 8.484375 -4.9375 L 3.3125 -4.9375 Z M 3.3125 -0.765625 "/></g></g></g><g fill="#e42a2a" fill-opacity="1"><g transform="translate(23.985813, 23.000228)"><g><path d="M 2.484375 -14.375 L 12.953125 -14.375 L 12.953125 -10.734375 L 6.234375 -10.734375 L 6.234375 -8.921875 L 11.8125 -8.921875 L 11.8125 -5.46875 L 6.234375 -5.46875 L 6.234375 -3.640625 L 12.953125 -3.640625 L 12.953125 0 L 2.484375 0 Z M 2.484375 -14.375 "/></g></g></g><g fill="#e42a2a" fill-opacity="1"><g transform="translate(39.274941, 23.000228)"><g><path d="M 0.875 -14.390625 L 14.421875 -14.390625 L 7.640625 0.296875 Z M 7.640625 -1.53125 L 13.234375 -13.640625 L 2.0625 -13.640625 Z M 7.640625 -1.53125 "/></g></g></g><g fill="#e42a2a" fill-opacity="1"><g transform="translate(54.564069, 23.000228)"><g><path d="M 2.484375 -14.375 L 12.953125 -14.375 L 12.953125 -10.734375 L 6.234375 -10.734375 L 6.234375 -8.921875 L 11.8125 -8.921875 L 11.8125 -5.46875 L 6.234375 -5.46875 L 6.234375 -3.640625 L 12.953125 -3.640625 L 12.953125 0 L 2.484375 0 Z M 2.484375 -14.375 "/></g></g></g><g fill="#e42a2a" fill-opacity="1"><g transform="translate(69.853197, 23.000228)"><g><path d="M 13.59375 0 L 2.546875 0 L 2.546875 -14.375 L 8.140625 -14.375 C 9.335938 -14.375 10.316406 -14.160156 11.078125 -13.734375 C 11.816406 -13.316406 12.390625 -12.75 12.796875 -12.03125 C 13.210938 -11.320312 13.421875 -10.535156 13.421875 -9.671875 C 13.421875 -8.597656 13.085938 -7.632812 12.421875 -6.78125 C 11.765625 -5.9375 10.9375 -5.378906 9.9375 -5.109375 Z M 3.84375 -13.609375 L 9.453125 -5.765625 C 10.378906 -5.953125 11.144531 -6.410156 11.75 -7.140625 C 12.351562 -7.867188 12.65625 -8.710938 12.65625 -9.671875 C 12.65625 -10.421875 12.46875 -11.101562 12.09375 -11.71875 C 11.726562 -12.34375 11.207031 -12.820312 10.53125 -13.15625 C 9.925781 -13.457031 9.132812 -13.609375 8.15625 -13.609375 Z M 3.3125 -13.109375 L 3.3125 -5.703125 L 8.609375 -5.703125 Z M 3.3125 -0.765625 L 12.140625 -0.765625 L 9.125 -4.953125 L 8.484375 -4.9375 L 3.3125 -4.9375 Z M 3.3125 -0.765625 "/></g></g></g><g fill="#e42a2a" fill-opacity="1"><g transform="translate(85.142324, 23.000228)"><g><path d="M 2.484375 -14.375 L 12.953125 -14.375 L 12.953125 -10.734375 L 6.234375 -10.734375 L 6.234375 -8.921875 L 11.8125 -8.921875 L 11.8125 -5.46875 L 6.234375 -5.46875 L 6.234375 -3.640625 L 12.953125 -3.640625 L 12.953125 0 L 2.484375 0 Z M 2.484375 -14.375 "/></g></g></g><g fill="#e42a2a" fill-opacity="1"><g transform="translate(100.431452, 23.000228)"><g><path d="M 2.046875 -0.015625 L 2.046875 -14.390625 L 2.84375 -14.390625 L 12.890625 -4.625 L 12.890625 -14.390625 L 13.65625 -14.390625 L 13.65625 -0.015625 Z M 2.046875 -0.015625 "/></g></g></g><g fill="#e42a2a" fill-opacity="1"><g transform="translate(115.720585, 23.000228)"><g><path d="M 13.578125 -5.4375 C 13.585938 -3.632812 13.066406 -2.222656 12.015625 -1.203125 C 10.972656 -0.191406 9.535156 0.3125 7.703125 0.3125 C 6.617188 0.3125 5.617188 0.0664062 4.703125 -0.421875 C 3.785156 -0.921875 3.054688 -1.625 2.515625 -2.53125 C 1.984375 -3.445312 1.71875 -4.5 1.71875 -5.6875 L 1.71875 -8.703125 C 1.71875 -9.867188 1.972656 -10.90625 2.484375 -11.8125 C 3.003906 -12.71875 3.710938 -13.421875 4.609375 -13.921875 C 5.515625 -14.429688 6.523438 -14.6875 7.640625 -14.6875 C 9.472656 -14.6875 10.910156 -14.1875 11.953125 -13.1875 C 12.992188 -12.1875 13.519531 -10.78125 13.53125 -8.96875 L 9.8125 -8.96875 C 9.800781 -9.664062 9.613281 -10.207031 9.25 -10.59375 C 8.882812 -10.976562 8.347656 -11.171875 7.640625 -11.171875 C 7.003906 -11.171875 6.476562 -10.972656 6.0625 -10.578125 C 5.65625 -10.179688 5.453125 -9.613281 5.453125 -8.875 L 5.453125 -5.515625 C 5.453125 -4.785156 5.664062 -4.21875 6.09375 -3.8125 C 6.53125 -3.40625 7.066406 -3.203125 7.703125 -3.203125 C 9.148438 -3.203125 9.875 -3.945312 9.875 -5.4375 Z M 13.578125 -5.4375 "/></g></g></g><g fill="#e42a2a" fill-opacity="1"><g transform="translate(131.009708, 23.000228)"><g><path d="M 2.484375 -14.375 L 12.953125 -14.375 L 12.953125 -10.734375 L 6.234375 -10.734375 L 6.234375 -8.921875 L 11.8125 -8.921875 L 11.8125 -5.46875 L 6.234375 -5.46875 L 6.234375 -3.640625 L 12.953125 -3.640625 L 12.953125 0 L 2.484375 0 Z M 2.484375 -14.375 "/></g></g></g><g fill="#ffffff" fill-opacity="1"><g transform="translate(8.696685, 51.864464)"><g><path d="M 2.109375 0 L 2.109375 -14.375 L 2.875 -14.375 L 2.875 -10.3125 C 4.289062 -10.3125 5.628906 -10.035156 6.890625 -9.484375 C 8.160156 -8.941406 9.269531 -8.1875 10.21875 -7.21875 C 11.175781 -6.25 11.910156 -5.140625 12.421875 -3.890625 L 12.421875 -14.375 L 13.171875 -14.375 L 13.171875 0 L 12.421875 0 C 12.421875 -1.71875 11.992188 -3.3125 11.140625 -4.78125 C 10.285156 -6.25 9.125 -7.410156 7.65625 -8.265625 C 6.1875 -9.117188 4.59375 -9.546875 2.875 -9.546875 L 2.875 0 Z M 2.109375 0 "/></g></g></g><g fill="#ffffff" fill-opacity="1"><g transform="translate(23.985813, 51.864464)"><g><path d="M 7.640625 0.3125 C 6.597656 0.3125 5.628906 0.0507812 4.734375 -0.46875 C 3.847656 -1 3.144531 -1.707031 2.625 -2.59375 C 2.101562 -3.476562 1.84375 -4.445312 1.84375 -5.5 L 1.84375 -14.375 L 13.453125 -14.375 L 13.453125 -5.5 C 13.453125 -4.445312 13.1875 -3.476562 12.65625 -2.59375 C 12.132812 -1.707031 11.429688 -1 10.546875 -0.46875 C 9.660156 0.0507812 8.691406 0.3125 7.640625 0.3125 Z M 7.640625 0.3125 "/></g></g></g><g fill="#ffffff" fill-opacity="1"><g transform="translate(39.274941, 51.864464)"><g><path d="M 1.84375 -14.390625 L 2.671875 -14.390625 L 7.6875 -5.515625 L 12.6875 -14.390625 L 13.453125 -14.390625 L 13.453125 -0.015625 L 1.84375 -0.015625 Z M 2.609375 -0.765625 L 12.6875 -0.765625 L 12.6875 -12.84375 L 8.03125 -4.671875 L 7.3125 -4.671875 L 2.609375 -12.96875 Z M 2.609375 -0.765625 "/></g></g></g><g fill="#ffffff" fill-opacity="1"><g transform="translate(54.564069, 51.864464)"><g><path d="M 14.421875 0 L 0.875 0 L 7.640625 -14.6875 Z M 2.0625 -0.765625 L 13.21875 -0.765625 L 7.640625 -12.875 Z M 2.0625 -0.765625 "/></g></g></g><g fill="#ffffff" fill-opacity="1"><g transform="translate(69.853197, 51.864464)"><g><path d="M 2.046875 -0.015625 L 2.046875 -14.390625 L 2.84375 -14.390625 L 12.890625 -4.625 L 12.890625 -14.390625 L 13.65625 -14.390625 L 13.65625 -0.015625 Z M 2.046875 -0.015625 "/></g></g></g><g fill="#ffffff" fill-opacity="1"><g transform="translate(85.142324, 51.864464)"><g><path d="M 3 -10.734375 L 3 -14.375 L 12.296875 -14.375 L 12.296875 -10.734375 L 8.015625 -10.734375 L 8.015625 -3.640625 L 12.296875 -3.640625 L 12.296875 0 L 3 0 L 3 -3.640625 L 7.265625 -3.640625 L 7.265625 -10.734375 Z M 3 -10.734375 "/></g></g></g><g fill="#ffffff" fill-opacity="1"><g transform="translate(100.431452, 51.864464)"><g><path d="M 7.265625 0 L 7.265625 -10.734375 L 1.84375 -10.734375 L 1.84375 -14.375 L 13.453125 -14.375 L 13.453125 -10.734375 L 8.015625 -10.734375 L 8.015625 0 Z M 7.265625 0 "/></g></g></g><g fill="#ffffff" fill-opacity="1"><g transform="translate(115.720585, 51.864464)"><g><path d="M 1.515625 -14.375 L 13.78125 -14.375 L 8.03125 -5.890625 L 8.03125 0 L 7.265625 0 L 7.265625 -5.890625 Z M 1.515625 -14.375 "/></g></g></g></svg>